<!DOCTYPE svg PUBLIC "-//W3C//DTD SVG 1.1//EN" "http://www.w3.org/Graphics/SVG/1.1/DTD/svg11.dtd">
<!-- Uploaded to: SVG Repo, www.svgrepo.com, Transformed by: SVG Repo Mixer Tools -->
<svg width="64px" height="64px" viewBox="-64 -64 192.00 192.00" version="1.1" xmlns="http://www.w3.org/2000/svg" xmlns:xlink="http://www.w3.org/1999/xlink" fill="#67dd0a" stroke="#67dd0a">
<g id="SVGRepo_bgCarrier" stroke-width="0"/>
<g id="SVGRepo_tracerCarrier" stroke-linecap="round" stroke-linejoin="round"/>
<g id="SVGRepo_iconCarrier"> <title>cha-translate-2</title> <desc>Created with Sketch.</desc> <defs> </defs> <g id="General" stroke-width="6.4" fill="none" fill-rule="evenodd"> <g id="SLICES-64px" transform="translate(-270.000000, -100.000000)"> </g> <g id="ICONS" transform="translate(-265.000000, -95.000000)" stroke-linecap="round" stroke-width="6.4" stroke-linejoin="round"> <g id="cha-translate-2" transform="translate(270.000000, 104.000000)"> <polyline id="Stroke-167" stroke="#67dd0a67dd0a67dd0aAEC14A" points="0 46 10 26 20 46"> </polyline> <path d="M4,38 L16,38" id="Stroke-169" stroke="#67dd0a67dd0a67dd0aAEC14A"> </path> <path d="M38,0 L42,0" id="Stroke-171" stroke="#67dd0a67dd0a67dd0a"> </path> <path d="M28,4 L52,4" id="Stroke-173" stroke="#67dd0a67dd0a67dd0a"> </path> <path d="M30,20 C39.813,20 46,10.062 46,4" id="Stroke-175" stroke="#67dd0a67dd0a67dd0a"> </path> <path d="M50,20 C42.156,20 36.63,13.651 34.727,8.006" id="Stroke-177" stroke="#67dd0a67dd0a67dd0a"> </path> <path d="M22,4 C15.373,4 10,9.373 10,16 L10,20" id="Stroke-179" stroke="#67dd0a67dd0a67dd0a7BBDEC"> </path> <path d="M28,42 C34.627,42 40,36.627 40,30 L40,26" id="Stroke-181" stroke="#67dd0a67dd0a67dd0a7BBDEC"> </path> <polyline id="Stroke-183" stroke="#67dd0a67dd0a67dd0a7BBDEC" points="36 30 40 26 44 30"> </polyline> <polyline id="Stroke-185" stroke="#67dd0a67dd0a67dd0a7BBDEC" points="6 16 10 20 14 16"> </polyline> </g> </g> </g> </g>
</svg>